<?xml version="1.0" encoding="utf-8"?>
<!-- Generator: Adobe Illustrator 27.8.1, SVG Export Plug-In . SVG Version: 6.00 Build 0)  -->
<svg version="1.1" id="Слой_1" xmlns="http://www.w3.org/2000/svg" xmlns:xlink="http://www.w3.org/1999/xlink" x="0px" y="0px"
	 viewBox="0 0 1024 1024" style="enable-background:new 0 0 1024 1024;" xml:space="preserve">
<style type="text/css">
	.st0{fill:#FFFFFF;}
</style>
<path class="st0" d="M818.2,993.1H217.5c-99.2,0-179.5-80.4-179.5-179.5V212.8c0-99.2,80.4-179.5,179.5-179.5h600.8
	c99.2,0,179.5,80.4,179.5,179.5v600.8C997.8,912.7,917.4,993.1,818.2,993.1z"/>
<g transform="translate(0.000000,1024.000000) scale(0.100000,-0.100000)">
	<path d="M5047.1,9255.4l1.6-302.2l-95.7-83.3c-53.5-44.7-92.4-86.4-85.9-92.5c4.9-6.2,56.7,30.8,113.5,80.2l105.4,91l1.6,303.8
		c3.2,248.3-1.6,305.3-19.5,305.3S5047.1,9500.5,5047.1,9255.4z"/>
	<path d="M5940.5,8808.2v-456.4l-89.2,9.3c-48.6,6.2-116.7,13.9-149.2,18.5l-61.6,9.3v114.1c0,66.3-6.5,114.1-16.2,114.1
		s-16.2-47.8-16.2-111v-112.6l-335.6,4.6c-361.6,6.2-593.4-10.8-854.4-61.7c-89.2-17-173.5-32.4-184.8-33.9
		c-17.8-1.5-21.1,58.6-19.5,296.1c1.6,231.3-3.2,296.1-19.5,296.1c-16.2,0-21.1-66.3-21.1-302.2v-302.2l-108.6-27.8
		c-165.4-41.6-471.8-151.1-625.8-226.7l-139.4-66.3l-55.1,49.3c-29.2,27.8-134.6,126.4-231.9,217.4
		c-98.9,92.5-183.2,163.5-189.7,157.3c-6.5-4.6,92.4-107.9,220.5-226.7c126.5-118.7,228.6-219,227-220.5c-3.2-1.5-38.9-20-81.1-43.2
		c-136.2-75.6-390.7-265.2-541.5-405.5c-152.4-144.9-342.1-371.6-421.5-510.4l-47-81.7h-340.5h-338.9l-97.3,89.4l-97.3,87.9
		l97.3-104.9l95.7-103.3l337.2,6.2c184.8,3.1,335.6,3.1,335.6,1.5s-21.1-44.7-48.6-97.1c-60-117.2-155.6-388.6-170.2-482.6
		c-9.7-57.1-6.5-70.9,14.6-70.9c17.8,0,32.4,30.8,48.6,103.3c30.8,129.5,107,334.6,180,485.7c204.3,427.1,658.3,863.5,1175.5,1130.3
		c382.6,197.4,891.7,339.2,1408.9,390.1c238.3,23.1,875.5,9.3,1096-24.7c188.1-27.8,541.5-114.1,690.7-168.1
		c475-171.2,810.7-376.2,1141.4-695.4c334-322.3,520.4-627.6,624.2-1020.8c17.8-69.4,32.4-146.5,32.4-172.7c0-37,6.5-47.8,30.8-47.8
		c17.8,0,37.3-6.2,42.2-15.4c6.5-9.3,254.5-15.4,690.7-15.4c442.6,0,679.3,4.6,679.3,15.4c0,10.8-240,15.4-684.2,15.4h-685.8
		l-60,234.4c-74.6,283.7-176.7,493.4-358.3,737.1c-134.6,180.4-418.3,453.4-611.2,589c-377.8,265.2-841.5,461.1-1289,545.9
		L5981,8344v459.5c0,359.3-4.9,461.1-19.5,461.1C5945.4,9264.6,5940.5,9162.8,5940.5,8808.2z"/>
	<path d="M7180.8,8721.8c-387.5-353.1-471.8-431.8-463.7-439.5c4.9-4.6,47,24.7,94,64.8c160.5,140.3,499.4,454.9,499.4,462.6
		C7310.5,8831.3,7276.5,8808.2,7180.8,8721.8z"/>
	<path d="M8606,8273.1c-48.6-43.2-233.5-208.2-408.6-363.9c-175.1-155.7-314.5-289.9-309.7-297.6c9.7-15.4,48.6,17,444.2,374.7
		c147.5,132.6,298.3,266.8,335.6,296.1c58.4,46.3,73,72.5,38.9,72.5C8701.6,8354.8,8656.2,8317.8,8606,8273.1z"/>
	<path d="M4781.3,8229.9c-822-87.9-1504.6-382.4-2020.2-871.2c-329.1-313-486.4-555.1-598.3-925.2c-22.7-72.5-40.5-141.9-40.5-154.2
		c0-18.5,460.5-21.6,3056.2-21.6h3056.2l-9.7,74c-22.7,177.3-139.4,458-275.6,661.5c-103.8,155.7-295.1,370.1-449.1,499.6
		c-481.5,405.5-1079.8,655.4-1754.3,730.9C5519,8248.4,4990.4,8251.5,4781.3,8229.9z M4567.2,8120.4c-4.9-10.8-24.3-21.6-47-24.7
		c-103.8-13.9-444.2-103.3-582.1-152.7c-209.2-75.6-444.2-191.2-648.5-320.7c-212.4-134.2-525.3-424.1-591.8-547.4
		c-24.3-44.7-58.4-94.1-74.6-106.4c-63.2-50.9-238.3-405.5-282.1-575.2l-11.3-43.2h246.4c189.7,0,244.8-4.6,238.3-18.5
		c-4.9-15.4-84.3-21.6-316.2-23.1c-304.8-3.1-311.3-3.1-311.3,29.3c0,60.1,111.9,348.5,199.4,515
		c84.3,160.4,100.5,178.9,314.5,377.8c270.8,252.9,356.7,320.7,556.1,444.1c288.6,178.9,653.4,331.5,980.9,408.6
		C4492.7,8143.6,4578.6,8152.8,4567.2,8120.4z M5048.8,8031c4.9-7.7-1.6-15.4-16.2-15.4c-14.6,0-21.1,7.7-16.2,15.4
		c4.9,9.3,13,15.4,16.2,15.4S5043.9,8040.2,5048.8,8031z M6422,7936.9c124.8-43.2,278.9-115.7,215.6-100.2
		c-17.8,4.6-111.9,35.5-207.5,70.9c-97.3,33.9-207.5,66.3-248.1,72.5c-68.1,7.7-84.3,18.5-61.6,40.1
		C6131.8,8029.5,6246.9,7998.6,6422,7936.9z M5548.1,7759.6l8.1-94.1l-124.8,7.7c-68.1,4.6-139.4,13.9-160.5,20l-37.3,13.9
		l42.2,52.4c48.6,60.1,235.1,143.4,252.9,112.6C5535.2,7861.4,5543.3,7812,5548.1,7759.6z M4243,7685.6l50.3-54l-105.4-32.4
		c-102.1-32.4-137.8-54-165.4-101.8c-11.3-20-19.5-20-64.9,4.6c-34,18.5-48.6,35.5-42.2,50.9c4.9,12.3,16.2,44.7,24.3,70.9
		c13,41.6,27.6,50.9,123.2,78.6c61.6,17,115.1,32.4,120,33.9C4187.8,7736.5,4215.4,7714.9,4243,7685.6z M7067.3,7668.6
		c160.5-106.4,413.4-309.9,505.9-405.5c137.8-144.9,267.5-320.7,345.3-470.3c69.7-137.2,163.8-408.6,145.9-424.1
		c-17.8-17-38.9,23.1-73,135.7c-45.4,146.5-134.6,330-233.5,474.9c-132.9,198.9-505.9,539.7-728,667.7
		c-50.3,29.3-92.4,61.7-92.4,72.5C6937.6,7750.3,6957.1,7742.6,7067.3,7668.6z M6378.3,7634.7c58.4-40.1,105.4-75.6,105.4-81.7
		c0-4.6-40.5-21.6-89.2-37c-48.6-13.9-92.4-32.4-97.3-40.1c-16.2-24.7-37.3-17-48.6,15.4c-6.5,17-29.2,52.4-51.9,78.6l-42.2,46.3
		l55.1,44.7c30.8,24.7,56.7,44.7,58.4,46.3C6271.3,7707.2,6319.9,7674.8,6378.3,7634.7z M4799.1,7295.5
		c66.5-40.1,123.2-74,126.5-75.6c4.9-4.6-205.9-195.8-223.7-203.5c-11.3-3.1-63.2,334.6-51.9,345.4
		C4662.9,7374.1,4679.1,7367.9,4799.1,7295.5z M6989.5,7172.1c32.4-32.4,32.4-32.4-1.6-49.3c-17.8-9.3-51.9-49.3-76.2-86.4
		c-22.7-38.5-47-69.4-51.9-69.4c-6.5,0-24.3,30.8-42.2,69.4c-16.2,38.6-47,83.3-69.7,100.2l-40.5,29.3l58.4,52.4
		c30.8,29.3,64.9,70.9,74.6,95.6l17.8,43.2l48.6-75.6C6934.4,7239.9,6971.7,7190.6,6989.5,7172.1z M7521.3,7149
		c0-20-22.7-12.3-63.2,20c-34,26.2-35.7,33.9-16.2,44.7c16.2,10.8,30.8,4.6,50.3-20C7508.3,7175.2,7521.3,7155.1,7521.3,7149z
		 M3312.3,7165.9l68.1-15.4l-27.6-80.2c-16.2-44.7-29.2-91-30.8-106.4c0-20-19.5-26.2-92.4-30.8c-51.9-3.1-95.7-6.2-97.3-4.6
		c-9.7,1.5,85.9,254.4,97.3,254.4C3236.1,7182.9,3273.4,7175.2,3312.3,7165.9z M5784.9,6962.4l51.9-52.4l-56.7-54l-56.7-54
		l-56.7,55.5l-58.4,55.5l51.9,47.8c29.2,27.8,56.7,49.3,63.2,50.9C5728.1,7013.3,5755.7,6990.1,5784.9,6962.4z M7284.6,6832.9
		c21.1-38.6,19.5-43.2-14.6-69.4c-50.3-37-61.6-35.5-94,17c-37.3,61.7-35.7,75.6,17.8,83.3c24.3,3.1,48.6,7.7,55.1,9.3
		C7255.4,6872.9,7271.6,6856,7284.6,6832.9z M2699.5,6529.1c-4.9-17-9.7-37-9.7-43.2c0-18.5-129.7-15.4-129.7,1.5
		c0,7.7,6.5,30.8,14.6,50.9c13,32.4,22.7,37,74.6,30.8S2707.6,6558.4,2699.5,6529.1z M8137.4,6333.2c0-7.7-43.8-13.9-97.3-13.9
		c-120,0-129.7,27.8-11.3,33.9C8121.2,6357.9,8137.4,6354.8,8137.4,6333.2z"/>
	<path d="M2495.2,6871.4c-56.7-95.6-150.8-305.3-141.1-314.6c3.2-4.6,19.5,26.2,35.7,66.3c14.6,41.6,60,131.1,98.9,202
		C2568.1,6965.5,2573,6997.8,2495.2,6871.4z"/>
	<path d="M2318.5,6478.2c-1.6-9.3-6.5-30.8-11.3-46.3c-8.1-26.2-8.1-26.2,9.7,0c9.7,15.4,14.6,35.5,9.7,46.3
		C2321.7,6492.1,2318.5,6492.1,2318.5,6478.2z"/>
	<path d="M2608.7,6519.8c0-7.7,9.7-15.4,22.7-15.4c13,0,29.2,7.7,34,15.4c4.9,9.3-4.9,15.4-22.7,15.4
		C2623.3,6535.2,2608.7,6529.1,2608.7,6519.8z"/>
	<path d="M7991.5,7429.6c-48.6-41.6-84.3-78.6-79.4-83.3c8.1-9.3,191.3,131.1,191.3,149.6C8106.6,7519,8077.4,7503.6,7991.5,7429.6z
		"/>
	<path d="M1149.5,7206c76.2-72.5,141.1-131.1,145.9-131.1c3.2,0-53.5,58.6-129.7,131.1c-76.2,72.5-141.1,131.1-145.9,131.1
		C1016.5,7337.1,1073.3,7278.5,1149.5,7206z"/>
	<path d="M8413,6550.7c0-9.3,124.8-15.4,340.5-15.4s340.5,6.2,340.5,15.4c0,9.3-124.8,15.4-340.5,15.4S8413,6559.9,8413,6550.7z"/>
	<path d="M1527.2,6339.4c77.8-3.1,204.3-3.1,283.7,0c77.8,1.5,13,4.6-142.7,4.6S1447.8,6341,1527.2,6339.4z"/>
	<path d="M857.6,6142c0-20,66.5-23.1,559.4-20c359.9,3.1,559.4,10.8,559.4,20c0,9.3-199.4,17-559.4,20
		C924.1,6165.2,857.6,6162.1,857.6,6142z"/>
	<path d="M2185.5,6085c0-3.1-1.6-44.7-4.9-94.1l-3.2-89.4l113.5-61.7l115.1-60.1h2775.7h2777.3l108.6,66.3
		c98.9,60.1,111.9,74,131.3,138.8c9.7,40.1,19.5,80.2,19.5,87.9c0,10.8-1045.8,15.4-3015.7,15.4
		C3544.2,6088.1,2187.1,6086.5,2185.5,6085z"/>
	<path d="M8348.2,5941.6c0-18.5,27.6-23.1,145.9-23.1s145.9,4.6,145.9,23.1s-27.6,23.1-145.9,23.1S8348.2,5960.1,8348.2,5941.6z"/>
	<path d="M8834.6,5941.6c0-12.3,11.3-23.1,24.3-23.1s24.3,10.8,24.3,23.1s-11.3,23.1-24.3,23.1S8834.6,5953.9,8834.6,5941.6z"/>
	<path d="M8202.3,5671.7c0-9.3,45.4-15.4,103.8-15.4s110.2,7.7,115.1,15.4c6.5,9.3-32.4,15.4-103.8,15.4
		C8250.9,5687.1,8202.3,5681,8202.3,5671.7z"/>
	<path d="M8477.9,5671.7c0-9.3,142.7-15.4,397.2-15.4c218.9,0,402.1,0,408.6-1.5c6.5,0,14.6,6.2,17.8,15.4c4.9,12.3-120,17-408.6,17
		C8627,5687.1,8477.9,5681,8477.9,5671.7z"/>
	<path d="M1392.7,5617.8c0-20,60-23.1,444.2-23.1c244.8,0,449.1,6.2,454,13.9c16.2,24.7-92.4,32.4-494.5,32.4
		C1447.8,5640.9,1392.7,5637.8,1392.7,5617.8z"/>
	<path d="M6830.6,5610c-9.7-9.3-77.8-35.5-152.4-58.6l-136.2-43.2l152.4-89.4c157.3-92.5,291.8-155.7,291.8-135.7
		c0,6.2-63.2,49.3-139.4,95.6c-194.6,118.7-192.9,117.2-171.9,129.5c17.8,10.8,217.3-112.6,319.4-198.9l64.9-54h-100.5
		c-55.1,0-120-7.7-144.3-15.4c-32.4-12.3-50.3-10.8-69.7,6.2c-14.6,10.8-100.5,60.1-192.9,106.4l-167,86.4l-84.3-72.5
		c-47-40.1-85.9-78.6-89.2-86.4s77.8-47.8,178.3-91c100.5-41.6,191.3-81.7,201-89.4c9.7-7.7,168.6,9.3,372.9,38.6
		c445.9,66.3,844.7,117.2,920.9,117.2c51.9,0,92.4-26.2,337.2-215.9c186.5-144.9,287-214.3,303.2-208.2
		c47,17,248.1,154.2,256.2,174.2c25.9,61.7-64.9,144.9-454,417.9l-157.3,111l-231.9,7.7c-126.5,3.1-295.1,9.3-376.1,13.9
		c-147.5,6.2-160.5-10.8-24.3-30.8c40.5-4.6,171.9-33.9,291.8-63.2c196.2-47.8,238.3-63.2,410.2-161.9
		c105.4-60.1,189.7-112.6,186.5-115.7c-4.9-3.1-90.8,26.2-191.3,63.2c-217.3,80.2-674.5,215.9-1053.9,309.9
		C6898.7,5628.5,6856.6,5634.7,6830.6,5610z"/>
	<path d="M4098.7,5540.7c-218.9-18.5-410.2-40.1-426.4-49.3c-25.9-13.9-24.3-18.5,17.8-49.3c194.6-143.4,265.9-186.6,358.3-212.8
		c111.9-32.4,121.6-54,14.6-33.9c-97.3,18.5-204.3,15.4-270.8-6.2c-51.9-18.5-61.6-17-113.5,23.1c-180,135.7-230.2,165-265.9,149.6
		c-73-29.3-335.6-92.5-355.1-86.4c-19.5,7.7,379.4,197.4,488,232.8c30.8,10.8,53.5,24.7,53.5,32.4c-1.6,9.3-230.2,15.4-604.8,15.4
		c-551.3,0-604.8-1.5-609.6-26.2c-3.2-17,3.2-23.1,24.3-20c43.8,9.3,984.1,24.7,976,17c-21.1-20-815.5-86.4-1034.4-86.4
		c-134.6,0-137.8,1.5-107,27.8c40.5,30.8,81.1,80.2,68.1,80.2c-16.2,0-309.7-223.6-483.2-365.5c-132.9-111-225.4-214.3-225.4-257.5
		c0-3.1,37.3-24.7,84.3-47.8c45.4-23.1,95.7-49.3,110.3-57.1c21.1-12.3,68.1,10.8,231.9,120.3c113.5,75.6,264.3,171.2,335.6,212.8
		l131.3,75.6l319.4-24.7c175.1-13.9,395.6-30.8,488-35.5c134.6-7.7,176.7-15.4,202.7-40.1c17.8-15.4,87.6-67.8,155.6-117.2
		c66.5-47.8,205.9-149.6,308.1-226.7c274-205.1,421.5-308.4,434.5-305.3c6.5,1.5,134.6,72.5,287,158.8
		c150.8,86.4,458.8,257.5,685.8,380.9l410.2,223.6l178.3,17l178.3,18.5l82.7,69.4c45.4,38.6,94,75.6,107,83.3
		c19.5,10.8,9.7,20-47,41.6c-38.9,15.4-90.8,27.8-115.1,27.8c-126.5,3.1-504.2-158.8-1152.8-495
		c-115.1-58.6-212.4-104.9-215.6-100.2c-8.1,7.7,197.8,131.1,565.8,340.8c359.9,203.5,366.4,206.6,724.7,302.2
		c139.4,37,35.7,32.4-147.5-7.7c-134.6-29.3-209.2-37-274-30.8c-144.3,13.9-1057.1,69.4-1118.7,67.8
		C4523.5,5576.1,4317.6,5560.7,4098.7,5540.7z M4651.5,5429.6c55.1-47.8,94-91,82.7-94.1c-21.1-6.2-262.7,158.8-249.7,172.7
		C4510.5,5532.9,4555.9,5511.4,4651.5,5429.6z M2446.5,5278.5c0-15.4-713.4-320.7-724.7-309.9c-11.3,9.3,90.8,63.2,278.9,144.9
		C2341.1,5261.5,2446.5,5300.1,2446.5,5278.5z"/>
	<path d="M1379.7,5491.3c113.5-3.1,303.2-3.1,421.5,0c118.4,1.5,25.9,4.6-205.9,4.6S1266.2,5492.8,1379.7,5491.3z"/>
	<path d="M3558.8,5443.5c-13-21.6,249.7-203.5,291.8-203.5c21.1,0,38.9,3.1,38.9,6.2c0,10.8-291.8,209.7-308.1,209.7
		C3573.4,5455.8,3563.6,5449.7,3558.8,5443.5z"/>
	<path d="M5823.8,4831.3c-94-20-510.7-206.6-530.2-237.5c-4.9-7.7-47-32.4-94-55.5c-123.2-60.1-369.7-195.8-369.7-202
		c0-4.6,35.7,10.8,81.1,32.4c92.4,44.7,107,46.3,139.4,17c24.3-23.1,30.8-57.1,11.3-52.4c-8.1,1.5-63.2-3.1-126.5-10.8
		c-61.6-7.7-120-12.3-126.5-9.3c-16.2,3.1-207.5-115.7-311.3-195.8l-77.8-58.6l-139.4,97.1c-76.2,54-209.2,148-293.5,209.7
		c-196.2,141.9-535,371.6-585.3,396.3c-42.2,23.1-136.2,21.6-481.5-1.5c-382.6-26.2-544.8-67.8-671.2-172.7
		c-43.8-35.5-43.8-37-21.1-118.7c27.6-97.1,43.8-117.2,73-84.8c29.2,33.9,43.8,29.3,61.6-18.5c9.7-24.7,27.6-69.4,42.2-100.2
		c14.6-32.4,19.5-58.6,11.3-58.6c-8.1,0-50.3,24.7-90.8,55.5c-42.2,29.3-77.8,52.4-79.4,49.3c-3.2-3.1-14.6-37-29.2-75.6
		c-22.7-70.9-22.7-72.5,17.8-118.7c22.7-24.7,58.4-54,79.4-63.2c27.6-13.9,35.7-30.8,35.7-78.6c0-32.4,6.5-63.2,13-67.8
		c8.1-4.6,899.8-10.8,1982.9-13.9c1083-4.6,1981.3-12.3,1999.1-18.5c16.2-7.7,194.6-6.2,397.2,0c201,6.2,577.2,13.9,835,15.4
		c484.8,4.6,494.5,6.2,496.1,67.8c0,12.3-11.3,17-32.4,12.3c-45.4-10.8-40.5,9.3,17.8,67.8c29.2,29.3,60,77.1,71.3,106.4
		c24.3,63.2,13,154.2-17.8,154.2c-40.5,0-42.2,33.9-1.6,74c43.8,46.3,68.1,134.2,42.2,151.1c-9.7,4.6-13,30.8-8.1,58.6
		c9.7,46.3,4.9,52.4-58.4,86.4c-38.9,21.6-123.2,60.1-189.7,87.9l-120,49.3L7604,4664.8c-228.6-189.7-244.8-203.5-207.5-191.2
		c19.5,7.7,47-9.3,94-54l66.5-64.8l-48.6-17c-27.6-7.7-55.1-20-61.6-26.2c-19.5-20-38.9-13.9-38.9,10.8c0,20-24.3,66.3-60,114.1
		c-1.6,3.1-25.9-13.9-55.1-35.5c-27.6-23.1-55.1-38.6-61.6-37c-4.9,3.1-60,29.3-123.2,60.1c-308.1,152.7-990.6,410.2-1113.9,422.5
		C5955.1,4849.8,5878.9,4843.7,5823.8,4831.3z M5896.7,4647.8c92.4-29.3,116.7-64.8,32.4-47.8c-113.5,21.6-175.1,40.1-175.1,52.4
		c0,18.5,21.1,33.9,38.9,27.8C5802.7,4677.1,5849.7,4661.7,5896.7,4647.8z M8080.7,4593.9c-13-12.3-56.7,33.9-56.7,58.6
		c0,18.5,8.1,15.4,32.4-13.9C8072.6,4617,8083.9,4596.9,8080.7,4593.9z M2608.7,4607.7c0-7.7,11.3-15.4,24.3-15.4
		c32.4,0,30.8-10.8-8.1-57.1c-17.8-21.6-32.4-49.3-32.4-60.1c0-29.3-8.1-27.8-71.3,12.3l-55.1,33.9l58.4,50.9
		C2587.6,4624.7,2608.7,4633.9,2608.7,4607.7z M6611.7,4576.9c37.3-9.3,66.5-21.6,66.5-27.8s-11.3-43.2-27.6-83.3
		c-22.7-63.2-30.8-69.4-61.6-58.6c-17.8,6.2-84.3,17-144.3,23.1l-111.9,12.3l87.6,80.2c48.6,44.7,95.7,78.6,107,77.1
		C6537.2,4596.9,6576.1,4586.1,6611.7,4576.9z M3560.4,4501.3c-3.2-18.5-123.2-70.9-134.6-60.1c-1.6,3.1-6.5,24.7-9.7,49.3
		c-3.2,37,4.9,49.3,43.8,70.9c47,26.2,50.3,26.2,76.2-6.2C3552.3,4538.3,3563.6,4513.7,3560.4,4501.3z M3005.9,4490.5l-95.7-84.8
		l-17.8,58.6c-11.3,32.4-16.2,60.1-14.6,63.2c6.5,9.3,158.9,46.3,192.9,47.8C3095.1,4575.4,3078.9,4553.8,3005.9,4490.5z
		 M7952.6,4513.7c14.6-17,24.3-30.8,21.1-33.9c-3.2-1.5-32.4-15.4-64.9-29.3c-58.4-24.7-58.4-24.7-84.3,18.5
		c-35.7,55.5-34,60.1,8.1,75.6C7878,4559.9,7916.9,4550.7,7952.6,4513.7z M5600,4527.6c37.3-15.4,55.1-43.2,29.2-43.2
		c-8.1,0-37.3-21.6-64.9-46.3c-51.9-46.3-53.5-46.3-94-21.6c-22.7,13.9-40.5,27.8-40.5,30.8c0,12.3,92.4,95.6,108.6,97.1
		C5549.8,4544.5,5577.3,4538.3,5600,4527.6z M6139.9,4441.2c-34-3.1-90.8-3.1-128.1,0l-66.5,4.6l34,41.6
		c29.2,33.9,50.3,43.2,120,46.3c82.7,4.6,84.3,3.1,92.4-41.6C6199.9,4448.9,6196.7,4445.8,6139.9,4441.2z M3725.8,4467.4
		c-40.5-29.3-63.2-26.2-63.2,9.3c0,24.7,29.2,35.5,71.3,26.2C3761.4,4495.2,3761.4,4493.6,3725.8,4467.4z M3326.9,4473.6
		c3.2-15.4,13-38.6,17.8-50.9c8.1-17-3.2-23.1-42.2-24.7c-79.4-3.1-100.5,24.7-48.6,66.3C3307.5,4506,3315.6,4507.5,3326.9,4473.6z
		 M5793,4485.9c4.9-7.7-1.6-18.5-16.2-23.1c-35.7-13.9-38.9-12.3-38.9,13.9C5737.8,4501.3,5778.4,4509,5793,4485.9z M2819.4,4408.8
		c0-63.2-32.4-109.5-76.2-109.5c-21.1,0-22.7,12.3-14.6,64.8c13,70.9,34,104.9,68.1,104.9C2813,4469,2819.4,4448.9,2819.4,4408.8z
		 M7701.3,4394.9l-9.7-64.8l-56.7,26.2c-34,17-58.4,41.6-61.6,61.7c-4.9,29.3,0,32.4,53.5,20c45.4-9.3,61.6-7.7,68.1,9.3
		C7709.4,4484.4,7712.6,4464.3,7701.3,4394.9z M7051.1,4290.1c0-9.3-17.8-24.7-40.5-33.9c-53.5-23.1-56.7-23.1-56.7,4.6
		c0,12.3-14.6,35.5-30.8,49.3c-30.8,24.7-30.8,24.7,3.2,52.4c34,26.2,37.3,24.7,79.4-13.9C7030,4325.5,7051.1,4299.3,7051.1,4290.1z
		 M3159.9,4282.4c0-6.2-21.1-13.9-48.6-17c-56.7-7.7-64.9,21.6-21.1,67.8c25.9,27.8,27.6,27.8,48.6-6.2
		C3150.2,4307,3158.3,4287,3159.9,4282.4z M6503.1,4322.5c8.1-38.6,6.5-38.6-100.5-38.6c-102.1,0-110.3,3.1-102.1,29.3
		c8.1,32.4,38.9,41.6,136.2,46.3C6488.5,4361,6496.6,4356.4,6503.1,4322.5z M5867.5,4341c0-3.1-11.3-38.6-25.9-78.6
		c-32.4-89.4-61.6-84.8-68.1,10.8c-4.9,70.9-4.9,72.5,43.8,72.5C5844.8,4345.6,5867.5,4344.1,5867.5,4341z M2644.3,4267l27.6-61.7
		l-40.5-13.9c-61.6-23.1-68.1-20-85.9,43.2c-14.6,47.8-13,60.1,9.7,77.1C2598.9,4341,2615.2,4333.3,2644.3,4267z M3489.1,4214.5
		c100.5-114.1,116.7-161.9,55.1-161.9c-21.1,0-45.4-7.7-55.1-17c-14.6-13.9-34,10.8-76.2,92.5c-47,86.4-68.1,111-103.8,118.7
		c-24.3,4.6-50.3,10.8-60,12.3c-8.1,3.1,13,18.5,48.6,37c35.7,18.5,73,30.8,81.1,27.8C3388.5,4322.5,3437.2,4273.1,3489.1,4214.5z
		 M8040.1,4319.4c-1.6-69.4-38.9-95.6-103.8-72.5c-25.9,9.3-35.7,54-14.6,72.5C7936.4,4334.8,8040.1,4333.3,8040.1,4319.4z
		 M5663.3,4263.9c16.2-58.6,11.3-72.5-29.2-72.5c-30.8,0-40.5,9.3-45.4,46.3c-8.1,54-8.1,54,34,57.1
		C5642.2,4296.2,5656.8,4285.5,5663.3,4263.9z M3625.2,4267c14.6-13.9,9.7-26.2-13-50.9c-32.4-32.4-32.4-32.4-56.7-1.5
		c-21.1,27.8-21.1,32.4,4.9,49.3C3594.4,4288.5,3602.5,4288.5,3625.2,4267z M5283.9,4270c0-7.7-4.9-35.5-9.7-61.7l-9.7-47.8H5125
		c-129.7,0-137.8,1.5-113.5,26.2c14.6,13.9,77.8,40.1,137.8,60.1C5275.8,4287,5283.9,4288.5,5283.9,4270z M3023.7,4132.8
		c-21.1-21.6-30.8-18.5-87.6,17c-34,23.1-76.2,41.6-94,41.6c-17.8,0-24.3,4.6-13,12.3c9.7,6.2,21.1,23.1,27.6,38.6
		c9.7,24.7,21.1,21.6,100.5-29.3C3038.3,4162.1,3044.8,4152.8,3023.7,4132.8z M6880.9,4237.7c16.2-17,25.9-32.4,22.7-35.5
		c-3.2-1.5-47-29.3-97.3-61.7c-103.8-66.3-128.1-69.4-233.5-24.7l-77.8,32.4l158.9,52.4c87.6,29.3,163.8,55.5,167,60.1
		C6835.5,4274.7,6851.7,4268.5,6880.9,4237.7z M7824.5,4223.8c35.7-27.8,35.7-29.3,8.1-92.5L7805,4068h-120h-120l95.7,91
		c51.9,49.3,103.8,91,111.9,92.5C7782.3,4251.5,7805,4239.2,7824.5,4223.8z M6201.5,4160.6c13,0,22.7-7.7,22.7-17
		c0-10.8-14.6-13.9-35.7-7.7c-21.1,4.6-77.8,9.3-126.5,9.3h-87.6l55.1,44.7l56.7,44.7l45.4-37
		C6157.8,4177.5,6188.6,4160.6,6201.5,4160.6z M7245.7,4222.2c0-7.7-6.5-15.4-16.2-15.4c-8.1,0-16.2,7.7-16.2,15.4
		c0,9.3,8.1,15.4,16.2,15.4C7239.2,4237.7,7245.7,4231.5,7245.7,4222.2z M5523.8,4149.8l4.9-50.9h-113.5
		c-63.2,0-115.1,6.2-115.1,12.3c0,38.6,111.9,95.6,178.3,91C5510.9,4199.1,5520.6,4189.9,5523.8,4149.8z M7169.5,4162.1l45.4-9.3
		l-79.4-57.1l-79.4-55.5l-25.9,43.2c-16.2,23.1-27.6,50.9-27.6,58.6C7002.5,4171.3,7085.2,4180.6,7169.5,4162.1z M2821.1,4085
		l79.4-74l-85.9-10.8c-142.7-15.4-201-12.3-212.4,15.4c-21.1,52.4-9.7,80.2,37.3,91c25.9,4.6,56.7,20,68.1,32.4
		c9.7,12.3,21.1,21.6,25.9,21.6C2736.8,4160.6,2775.7,4126.6,2821.1,4085z M3959.2,4103.5c27.6-17-87.6-33.9-235.1-33.9
		c-116.7-1.5-123.2,0-115.1,30.8s17.8,30.8,170.2,23.1C3866.8,4118.9,3947.9,4109.7,3959.2,4103.5z M4189.5,4061.9
		c-13-63.2-30.8-70.9-56.7-24.7c-14.6,26.2-11.3,37,19.5,61.7c21.1,15.4,38.9,26.2,42.2,23.1S4194.3,4092.7,4189.5,4061.9z
		 M6232.3,3975.5c4.9-7.7,1.6-15.4-6.5-15.4c-9.7,0-17.8,7.7-17.8,15.4c0,9.3,3.2,15.4,6.5,15.4
		C6219.4,3990.9,6227.5,3984.8,6232.3,3975.5z"/>
	<path d="M3565.3,4239.2c0-9.3,6.5-20,16.2-24.7c9.7-4.6,11.3,1.5,6.5,13.9C3576.6,4256.2,3565.3,4260.8,3565.3,4239.2z"/>
	<path d="M914.4,4748.1c-4.9-3.1-8.1-10.8-8.1-15.4c0-10.8,715-4.6,726.4,6.2c4.9,4.6-132.9,9.3-306.4,9.3
		c-173.5,1.5-335.6,3.1-359.9,4.6C941.9,4754.2,917.6,4752.7,914.4,4748.1z"/>
	<path d="M8275.2,4422.7c6.5-9.3,194.6-15.4,512.3-15.4c322.6,0,501,6.2,501,15.4s-181.6,15.4-512.3,15.4
		C8440.6,4438.1,8268.7,4433.5,8275.2,4422.7z"/>
	<path d="M8461.7,4183.7c-92.4-78.6-171.9-151.1-175.1-160.4c-3.2-9.3-16.2-17-29.2-17c-14.6,0-19.5-6.2-14.6-15.4
		c6.5-9.3,97.3-15.4,220.5-15.4c128.1,0,209.2,6.2,209.2,15.4s-73,15.4-188.1,15.4c-103.8,0-184.8,6.2-181.6,12.3
		c3.2,9.3,298.3,263.7,335.6,291.4c3.2,3.1,3.2,7.7,0,10.8C8635.2,4324,8555.7,4262.3,8461.7,4183.7z"/>
	<path d="M1298.6,4282.4c3.2-9.3,11.3-15.4,17.8-15.4c6.5,1.5,183.2,1.5,392.4,1.5c243.2,0,381,6.2,381,15.4s-144.3,15.4-398.8,15.4
		C1413.7,4299.3,1293.8,4294.7,1298.6,4282.4z"/>
	<path d="M1975.9,3947.1c-39.8-32.8-112.2-93.1-160.5-133.4l-88.1-74.1l-506.8,4.2c-331.9,2.1-505.6,0-505.6-7.4
		s177.4-9.5,515.3-7.4c284.8,1.1,523.7,2.1,531,2.1c8.4,0,14.5,4.2,12.1,9.5c-1.2,5.3,60.3,62.4,138.8,127l140,117.5h67.6
		c37.4,0,67.6,5.3,67.6,10.6c0,6.4-31.4,10.6-68.8,10.6C2050.8,4006.4,2045.9,4004.2,1975.9,3947.1z"/>
	<path d="M1911.5,3728.8c-102.1-92.5-178.3-168.1-170.2-169.6c17.8,0,368,302.2,377.8,325.4
		C2135.2,3921.5,2081.7,3881.4,1911.5,3728.8z"/>
	<path d="M2130.4,3579.2c4.9-41.6,27.6-163.5,48.6-274.5c21.1-109.5,43.8-237.5,50.3-280.6c4.9-44.7,16.2-81.7,24.3-81.7
		c6.5,0,61.6-43.2,123.2-95.6c61.6-54,158.9-137.2,217.3-185l103.8-89.4h249.7c202.7,0,256.2-4.6,277.2-23.1
		c24.3-21.6,158.9-24.7,1087.9-23.1h1058.7l50.3,43.2l48.6,41.6l523.7-7.7c338.9-4.6,530.2-1.5,539.9,7.7
		c9.7,9.3,162.1,15.4,382.6,17l368,1.5l-48.6-35.5c-25.9-20-51.9-37-58.4-37c-8.1,0-13-6.2-13-15.4c0-26.2,29.2-17,69.7,23.1
		c32.4,35.5,55.1,40.1,180,49.3l144.3,9.3l97.3,78.6c220.5,177.3,329.1,256,356.7,256c43.8,0,32.4-38.6-24.3-80.2
		c-29.2-21.6-126.5-98.7-215.6-172.7l-162.1-132.6h-141.1c-142.7,0-191.3-7.7-191.3-32.4c0-7.7,73-13.9,162.1-13.9h162.1l68.1,58.6
		c60,49.3,371.3,314.6,429.7,363.9c17.8,15.4,150.8,618.3,150.8,681.6c0,18.5-419.9,21.6-3065.9,21.6H2119L2130.4,3579.2z
		 M6285.8,3556.1c-4.9-13.9-66.5-21.6-212.4-24.7c-176.7-3.1-205.9,0-205.9,20c0,20,32.4,23.1,212.4,23.1
		C6242.1,3574.6,6290.7,3570,6285.8,3556.1z M2381.7,3440.4c0-30.8,8.1-100.2,17.8-154.2c16.2-89.4,13-131.1-9.7-109.5
		c-16.2,15.4-60,289.9-50.3,314.6C2355.7,3531.4,2381.7,3499,2381.7,3440.4z M8080.7,3297c-48.6-228.2-77.8-319.2-98.9-308.4
		c-17.8,9.3-14.6,33.9,35.7,291.4c21.1,114.1,38.9,208.2,38.9,211.3c0,6.2,55.1,17,63.2,12.3C8122.8,3500.6,8105,3408.1,8080.7,3297
		z M2305.5,3332.5c34-203.5,34-189.7-4.9-189.7c-34,0-35.7,3.1-73,192.8c-30.8,158.8-30.8,161.9,13,161.9
		C2276.3,3497.5,2279.5,3486.7,2305.5,3332.5z M4082.5,3233.8c-30.8-27.8-90.8-81.7-136.2-120.3l-81.1-72.5l-392.4,6.2
		c-227,3.1-390.7,12.3-384.3,20c4.9,7.7,178.3,13.9,384.3,13.9l376.1,1.5l129.7,114.1c81.1,70.9,134.6,109.5,144.3,100.2
		S4118.1,3264.6,4082.5,3233.8z M7493.7,3209.1c13-21.6-126.5-126.4-160.5-120.3c-16.2,3.1-139.4,6.2-270.8,6.2
		c-155.6,1.5-236.7,7.7-230.2,17c6.5,9.3,115.1,15.4,274,15.4c215.6,0,269.1,4.6,285.4,23.1c17.8,20-19.5,23.1-319.4,23.1h-340.5
		l-48.6-49.3c-94-98.7-363.2-336.2-377.8-336.2c-9.7,0-16.2,7.7-16.2,17c0,24.7,403.7,390.1,442.6,400.9
		C6786.8,3219.9,7485.6,3223,7493.7,3209.1z M2843.8,3059.6c61.6-46.3,113.5-94.1,115.1-104.9c3.2-10.8,14.6-66.3,24.3-121.8
		c17.8-91,25.9-103.3,69.7-121.8c27.6-12.3,139.4-24.7,251.3-29.3c141.1-6.2,204.3-15.4,209.2-27.8c4.9-15.4-38.9-20-186.5-20
		c-167,0-201,4.6-274,37l-84.3,37l-27.6,123.4c-27.6,121.8-29.2,123.4-131.3,205.1c-98.9,78.6-121.6,106.4-89.2,106.4
		C2727,3142.8,2783.8,3105.8,2843.8,3059.6z M2347.6,3073.4c13-35.5,94-118.7,249.7-256c126.5-112.6,233.5-211.3,236.7-219
		c3.2-9.3-17.8-12.3-53.5-6.2c-43.8,6.2-90.8,35.5-165.4,98.7c-56.7,49.3-154,131.1-214,180.4c-97.3,83.3-110.3,98.7-118.4,161.9
		s1.6,92.5,34,94.1C2323.3,3127.4,2336.3,3102.7,2347.6,3073.4z M7132.2,3011.8c-16.2-18.5-61.6-23.1-222.1-23.1
		c-176.7,0-201,3.1-183.2,23.1c14.6,17,66.5,23.1,215.6,26.2c108.6,3.1,201,3.1,204.3,1.5C7150,3036.4,7143.5,3025.6,7132.2,3011.8z
		"/>
	<path d="M1973.1,3556.1c3.2-27.8,19.5-131.1,37.3-229.8c16.2-98.7,30.8-183.5,30.8-189.7c0-4.6-157.3-9.3-348.6-9.3
		c-192.9,0-348.6-6.2-348.6-13.9s-107-109.5-238.3-226.7c-132.9-115.7-243.2-219-246.4-228.2c-3.2-9.3,110.3,89.4,252.9,219
		l261,234.4h340.5h340.5l11.3-98.7c6.5-54,22.7-115.7,38.9-135.7c19.5-27.8,290.2-266.8,358.3-317.7c4.9-3.1-13-23.1-40.5-44.7
		c-128.1-104.9-303.2-269.9-293.5-277.6c8.1-9.3,171.9,128,298.3,252.9l53.5,52.4l103.8-84.8l102.1-86.4h192.9h191.3l-3.2-416.3
		c-3.2-359.3-1.6-416.3,19.5-416.3c21.1,0,24.3,58.6,24.3,416.3v416.3h325.9h325.9l-11.3-131.1c-9.7-115.7-8.1-131.1,16.2-131.1
		c22.7,0,25.9,18.5,22.7,128l-3.2,126.4l254.5,4.6l254.5,4.6l-4.9-155.7c-3.2-115.7,0-154.2,16.2-154.2c14.6,0,19.5,41.6,19.5,154.2
		v154.2h656.6h656.6v-231.3c0-143.4,6.5-231.3,16.2-231.3s16.2,87.9,16.2,231.3v231.3h85.9h84.3l-4.9-454.9
		c-4.9-407.1-3.2-454.9,19.5-454.9s25.9,49.3,25.9,454.9v454.9h567.5h567.5V2102c0-212.8,4.9-269.9,21.1-269.9s21.1,57.1,21.1,269.9
		l-1.6,269.9h154h154l-4.9-578.3c-3.2-484.2,0-578.3,17.8-578.3c19.5,0,22.7,58.6,24.3,328.4c0,178.9,1.6,439.5,1.6,576.7l1.6,248.3
		l121.6,6.2l121.6,4.6V2230c0-91,6.5-151.1,16.2-151.1s16.2,61.7,16.2,152.7v151.1l207.5,174.2c113.5,95.6,248.1,211.3,298.3,257.5
		l94,83.3l32.4,157.3c17.8,86.4,43.8,229.8,56.7,319.2c14.6,89.4,29.2,177.3,34,197.4c4.9,23.1,0,33.9-17.8,33.9
		c-25.9,0-29.2-10.8-64.9-215.9c-51.9-293-90.8-470.3-110.3-488.8c-11.3-9.3-142.7-121.8-295.1-249.8l-275.6-232.8l-2261.8,3.1
		c-1243.6,1.5-2357.4,6.2-2474.2,9.3l-210.8,4.6l-227,195.8c-124.8,107.9-249.7,214.3-277.2,235.9c-50.3,40.1-51.9,47.8-111.9,390.1
		c-51.9,286.8-66.5,348.5-87.6,348.5C1971.5,3605.4,1966.6,3593.1,1973.1,3556.1z"/>
	<path d="M8461.7,3128.9c0-103.3,6.5-171.2,16.2-171.2c9.7,0,16.2,63.2,16.2,160.4c0,91-6.5,166.5-16.2,171.2
		C8468.2,3295.5,8461.7,3238.4,8461.7,3128.9z"/>
	<path d="M8633.5,2828.3c69.7-63.2,131.3-111,136.2-106.4c9.7,9.3-228.6,219-249.7,220.5C8510.3,2942.4,8562.2,2891.5,8633.5,2828.3
		z"/>
	<path d="M1942.3,2644.8c-293.5-257.5-483.2-433.3-476.7-439.5c8.1-7.7,152.4,115.7,437.8,373.2c89.2,80.2,155.6,146.5,145.9,146.5
		C2041.2,2724.9,1992.6,2689.5,1942.3,2644.8z"/>
	<path d="M5475.2,2561.5c-25.9-12.3-45.4-27.8-45.4-37c0-23.1,76.2-15.4,87.6,9.3c4.9,12.3,19.5,23.1,34,23.1
		c13,0,24.3,7.7,24.3,15.4C5575.7,2593.9,5527.1,2589.2,5475.2,2561.5z"/>
	<path d="M5609.8,2546.1c-14.6-26.2,9.7-27.8,411.8-23.1c351.8,3.1,429.7,7.7,445.9,26.2c17.8,20-34,23.1-410.2,23.1
		C5663.3,2572.3,5624.3,2569.2,5609.8,2546.1z"/>
	<path d="M7952.6,2236.1c-11.3-18.5,392.4-380.9,408.6-367c4.9,6.2-19.5,35.5-53.5,66.3c-35.7,30.8-128.1,114.1-204.3,185
		C8025.5,2192.9,7957.4,2243.8,7952.6,2236.1z"/>
	<path d="M6305.3,2148.2c0-12.3,11.3-23.1,24.3-23.1c13,0,24.3,10.8,24.3,23.1c0,12.3-11.3,23.1-24.3,23.1
		C6316.7,2171.4,6305.3,2160.6,6305.3,2148.2z"/>
</g>
</svg>
